<svg height="472pt" viewBox="0 0 472.00049 472" width="472pt" xmlns="http://www.w3.org/2000/svg"><path d="m120 304c-66.464844-.195312-120.191406-54.230469-120-120.699219v-88.6875s52.800781-76.414062 80-88.511719c18.289062-8.136718 61.710938-8.136718 80 0 27.199219 12.097657 80 88.511719 80 88.511719v88.6875c.191406 66.46875-53.535156 120.503907-120 120.699219zm0 0" fill="#e6e6e6"/><path d="m176.570312 80c-2.097656-.003906-4.109374-.828125-5.601562-2.296875l-32.566406-32c-7.203125-7.199219-29.539063-7.199219-36.738282-.050781l-32.625 32.050781c-2.007812 2.136719-5.027343 3.003906-7.867187 2.257813-2.839844-.746094-5.039063-2.988282-5.734375-5.839844-.695312-2.851563.226562-5.855469 2.402344-7.828125l32.570312-32c13.261719-13.253907 45.964844-13.253907 59.261719.050781l32.519531 31.949219c2.316406 2.277343 3.023438 5.726562 1.796875 8.730469-1.226562 3.007812-4.148437 4.972656-7.394531 4.976562zm0 0" fill="#4d4d4d"/><path d="m216 472c-57.410156-.066406-103.933594-46.589844-104-104v-128c0-4.421875 3.582031-8 8-8s8 3.578125 8 8v128c0 48.597656 39.398438 88 88 88s88-39.402344 88-88v-152c0-45.601562 36.113281-80 84-80s84 34.398438 84 80v184c0 4.417969-3.582031 8-8 8s-8-3.582031-8-8v-184c0-36.488281-29.230469-64-68-64-38.765625 0-68 27.511719-68 64v152c-.066406 57.410156-46.589844 103.933594-104 104zm0 0" fill="#808080"/><g fill="#4d4d4d"><path d="m88 144h64v64h-64zm0 0"/><path d="m104 208h32v32h-32zm0 0"/><path d="m32 168c-4.417969 0-8-3.582031-8-8v-32c0-4.421875 3.582031-8 8-8s8 3.578125 8 8v32c0 4.417969-3.582031 8-8 8zm0 0"/><path d="m208 168c-4.417969 0-8-3.582031-8-8v-32c0-4.421875 3.582031-8 8-8s8 3.578125 8 8v32c0 4.417969-3.582031 8-8 8zm0 0"/></g></svg>